<svg width="551" height="347" viewBox="0 0 551 347" fill="none" xmlns="http://www.w3.org/2000/svg">
<path opacity="0.2" d="M173.5 347C161.756 347.003 150.041 345.822 138.534 343.475C116.341 338.93 95.2603 330.059 76.4949 317.369C48.6003 298.538 26.7652 272.022 13.6349 241.034C9.19822 230.538 5.8117 219.629 3.52486 208.466C-1.17495 185.392 -1.17495 161.608 3.52486 138.534C8.07002 116.341 16.9408 95.2603 29.6309 76.4949C48.4614 48.6003 74.9773 26.7652 105.966 13.6349C116.462 9.19825 127.371 5.81173 138.534 3.52486C161.608 -1.17495 185.392 -1.17495 208.466 3.52486C230.659 8.07002 251.739 16.9408 270.505 29.6309C298.399 48.4614 320.235 74.9773 333.365 105.966C337.801 116.462 341.188 127.371 343.475 138.534C348.175 161.608 348.175 185.392 343.475 208.466C338.93 230.659 330.059 251.739 317.369 270.505C298.538 298.399 272.022 320.235 241.034 333.365C230.538 337.801 219.629 341.188 208.466 343.475C196.959 345.822 185.244 347.003 173.5 347V347ZM173.762 28.9999C93.9398 28.9999 28.9999 93.9398 28.9999 173.762C28.9999 253.584 93.9398 318.524 173.762 318.524C253.584 318.524 318.523 253.584 318.523 173.763C318.523 93.9418 253.584 28.9999 173.762 28.9999Z" fill="url(#paint0_linear)"/>
<path d="M428.5 69C429.881 69 431 67.8807 431 66.5C431 65.1193 429.881 64 428.5 64C427.119 64 426 65.1193 426 66.5C426 67.8807 427.119 69 428.5 69Z" fill="#212121"/>
<path d="M476.5 69C477.881 69 479 67.8807 479 66.5C479 65.1193 477.881 64 476.5 64C475.119 64 474 65.1193 474 66.5C474 67.8807 475.119 69 476.5 69Z" fill="#212121"/>
<path d="M524.5 69C525.881 69 527 67.8807 527 66.5C527 65.1193 525.881 64 524.5 64C523.119 64 522 65.1193 522 66.5C522 67.8807 523.119 69 524.5 69Z" fill="#212121"/>
<path d="M452.5 69C453.881 69 455 67.8807 455 66.5C455 65.1193 453.881 64 452.5 64C451.119 64 450 65.1193 450 66.5C450 67.8807 451.119 69 452.5 69Z" fill="#212121"/>
<path d="M500.5 69C501.881 69 503 67.8807 503 66.5C503 65.1193 501.881 64 500.5 64C499.119 64 498 65.1193 498 66.5C498 67.8807 499.119 69 500.5 69Z" fill="#212121"/>
<path d="M548.5 69C549.881 69 551 67.8807 551 66.5C551 65.1193 549.881 64 548.5 64C547.119 64 546 65.1193 546 66.5C546 67.8807 547.119 69 548.5 69Z" fill="#212121"/>
<path d="M428.5 135C429.881 135 431 133.881 431 132.5C431 131.119 429.881 130 428.5 130C427.119 130 426 131.119 426 132.5C426 133.881 427.119 135 428.5 135Z" fill="#212121"/>
<path d="M476.5 135C477.881 135 479 133.881 479 132.5C479 131.119 477.881 130 476.5 130C475.119 130 474 131.119 474 132.5C474 133.881 475.119 135 476.5 135Z" fill="#212121"/>
<path d="M524.5 135C525.881 135 527 133.881 527 132.5C527 131.119 525.881 130 524.5 130C523.119 130 522 131.119 522 132.5C522 133.881 523.119 135 524.5 135Z" fill="#212121"/>
<path d="M452.5 135C453.881 135 455 133.881 455 132.5C455 131.119 453.881 130 452.5 130C451.119 130 450 131.119 450 132.5C450 133.881 451.119 135 452.5 135Z" fill="#212121"/>
<path d="M500.5 135C501.881 135 503 133.881 503 132.5C503 131.119 501.881 130 500.5 130C499.119 130 498 131.119 498 132.5C498 133.881 499.119 135 500.5 135Z" fill="#212121"/>
<path d="M548.5 135C549.881 135 551 133.881 551 132.5C551 131.119 549.881 130 548.5 130C547.119 130 546 131.119 546 132.5C546 133.881 547.119 135 548.5 135Z" fill="#212121"/>
<path d="M428.5 91C429.881 91 431 89.8807 431 88.5C431 87.1193 429.881 86 428.5 86C427.119 86 426 87.1193 426 88.5C426 89.8807 427.119 91 428.5 91Z" fill="#212121"/>
<path d="M476.5 91C477.881 91 479 89.8807 479 88.5C479 87.1193 477.881 86 476.5 86C475.119 86 474 87.1193 474 88.5C474 89.8807 475.119 91 476.5 91Z" fill="#212121"/>
<path d="M524.5 91C525.881 91 527 89.8807 527 88.5C527 87.1193 525.881 86 524.5 86C523.119 86 522 87.1193 522 88.5C522 89.8807 523.119 91 524.5 91Z" fill="#212121"/>
<path d="M452.5 91C453.881 91 455 89.8807 455 88.5C455 87.1193 453.881 86 452.5 86C451.119 86 450 87.1193 450 88.5C450 89.8807 451.119 91 452.5 91Z" fill="#212121"/>
<path d="M500.5 91C501.881 91 503 89.8807 503 88.5C503 87.1193 501.881 86 500.5 86C499.119 86 498 87.1193 498 88.5C498 89.8807 499.119 91 500.5 91Z" fill="#212121"/>
<path d="M548.5 91C549.881 91 551 89.8807 551 88.5C551 87.1193 549.881 86 548.5 86C547.119 86 546 87.1193 546 88.5C546 89.8807 547.119 91 548.5 91Z" fill="#212121"/>
<path d="M428.5 157C429.881 157 431 155.881 431 154.5C431 153.119 429.881 152 428.5 152C427.119 152 426 153.119 426 154.5C426 155.881 427.119 157 428.5 157Z" fill="#212121"/>
<path d="M476.5 157C477.881 157 479 155.881 479 154.5C479 153.119 477.881 152 476.5 152C475.119 152 474 153.119 474 154.5C474 155.881 475.119 157 476.5 157Z" fill="#212121"/>
<path d="M524.5 157C525.881 157 527 155.881 527 154.5C527 153.119 525.881 152 524.5 152C523.119 152 522 153.119 522 154.5C522 155.881 523.119 157 524.5 157Z" fill="#212121"/>
<path d="M452.5 157C453.881 157 455 155.881 455 154.5C455 153.119 453.881 152 452.5 152C451.119 152 450 153.119 450 154.5C450 155.881 451.119 157 452.5 157Z" fill="#212121"/>
<path d="M500.5 157C501.881 157 503 155.881 503 154.5C503 153.119 501.881 152 500.5 152C499.119 152 498 153.119 498 154.5C498 155.881 499.119 157 500.5 157Z" fill="#212121"/>
<path d="M548.5 157C549.881 157 551 155.881 551 154.5C551 153.119 549.881 152 548.5 152C547.119 152 546 153.119 546 154.5C546 155.881 547.119 157 548.5 157Z" fill="#212121"/>
<path d="M428.5 113C429.881 113 431 111.881 431 110.5C431 109.119 429.881 108 428.5 108C427.119 108 426 109.119 426 110.5C426 111.881 427.119 113 428.5 113Z" fill="#212121"/>
<path d="M476.5 113C477.881 113 479 111.881 479 110.5C479 109.119 477.881 108 476.5 108C475.119 108 474 109.119 474 110.5C474 111.881 475.119 113 476.5 113Z" fill="#212121"/>
<path d="M524.5 113C525.881 113 527 111.881 527 110.5C527 109.119 525.881 108 524.5 108C523.119 108 522 109.119 522 110.5C522 111.881 523.119 113 524.5 113Z" fill="#212121"/>
<path d="M452.5 113C453.881 113 455 111.881 455 110.5C455 109.119 453.881 108 452.5 108C451.119 108 450 109.119 450 110.5C450 111.881 451.119 113 452.5 113Z" fill="#212121"/>
<path d="M500.5 113C501.881 113 503 111.881 503 110.5C503 109.119 501.881 108 500.5 108C499.119 108 498 109.119 498 110.5C498 111.881 499.119 113 500.5 113Z" fill="#212121"/>
<path d="M548.5 113C549.881 113 551 111.881 551 110.5C551 109.119 549.881 108 548.5 108C547.119 108 546 109.119 546 110.5C546 111.881 547.119 113 548.5 113Z" fill="#212121"/>
<path d="M428.5 179C429.881 179 431 177.881 431 176.5C431 175.119 429.881 174 428.5 174C427.119 174 426 175.119 426 176.5C426 177.881 427.119 179 428.5 179Z" fill="#212121"/>
<path d="M476.5 179C477.881 179 479 177.881 479 176.5C479 175.119 477.881 174 476.5 174C475.119 174 474 175.119 474 176.5C474 177.881 475.119 179 476.5 179Z" fill="#212121"/>
<path d="M524.5 179C525.881 179 527 177.881 527 176.5C527 175.119 525.881 174 524.5 174C523.119 174 522 175.119 522 176.5C522 177.881 523.119 179 524.5 179Z" fill="#212121"/>
<path d="M452.5 179C453.881 179 455 177.881 455 176.5C455 175.119 453.881 174 452.5 174C451.119 174 450 175.119 450 176.5C450 177.881 451.119 179 452.5 179Z" fill="#212121"/>
<path d="M500.5 179C501.881 179 503 177.881 503 176.5C503 175.119 501.881 174 500.5 174C499.119 174 498 175.119 498 176.5C498 177.881 499.119 179 500.5 179Z" fill="#212121"/>
<path d="M548.5 179C549.881 179 551 177.881 551 176.5C551 175.119 549.881 174 548.5 174C547.119 174 546 175.119 546 176.5C546 177.881 547.119 179 548.5 179Z" fill="#212121"/>
<path d="M285.5 69C286.881 69 288 67.8807 288 66.5C288 65.1193 286.881 64 285.5 64C284.119 64 283 65.1193 283 66.5C283 67.8807 284.119 69 285.5 69Z" fill="#212121"/>
<path d="M333.5 69C334.881 69 336 67.8807 336 66.5C336 65.1193 334.881 64 333.5 64C332.119 64 331 65.1193 331 66.5C331 67.8807 332.119 69 333.5 69Z" fill="#212121"/>
<path d="M381.5 69C382.881 69 384 67.8807 384 66.5C384 65.1193 382.881 64 381.5 64C380.119 64 379 65.1193 379 66.5C379 67.8807 380.119 69 381.5 69Z" fill="#212121"/>
<path d="M309.5 69C310.881 69 312 67.8807 312 66.5C312 65.1193 310.881 64 309.5 64C308.119 64 307 65.1193 307 66.5C307 67.8807 308.119 69 309.5 69Z" fill="#212121"/>
<path d="M357.5 69C358.881 69 360 67.8807 360 66.5C360 65.1193 358.881 64 357.5 64C356.119 64 355 65.1193 355 66.5C355 67.8807 356.119 69 357.5 69Z" fill="#212121"/>
<path d="M405.5 69C406.881 69 408 67.8807 408 66.5C408 65.1193 406.881 64 405.5 64C404.119 64 403 65.1193 403 66.5C403 67.8807 404.119 69 405.5 69Z" fill="#212121"/>
<path d="M285.5 135C286.881 135 288 133.881 288 132.5C288 131.119 286.881 130 285.5 130C284.119 130 283 131.119 283 132.5C283 133.881 284.119 135 285.5 135Z" fill="#212121"/>
<path d="M333.5 135C334.881 135 336 133.881 336 132.5C336 131.119 334.881 130 333.5 130C332.119 130 331 131.119 331 132.5C331 133.881 332.119 135 333.5 135Z" fill="#212121"/>
<path d="M381.5 135C382.881 135 384 133.881 384 132.5C384 131.119 382.881 130 381.5 130C380.119 130 379 131.119 379 132.5C379 133.881 380.119 135 381.5 135Z" fill="#212121"/>
<path d="M309.5 135C310.881 135 312 133.881 312 132.5C312 131.119 310.881 130 309.5 130C308.119 130 307 131.119 307 132.5C307 133.881 308.119 135 309.5 135Z" fill="#212121"/>
<path d="M357.5 135C358.881 135 360 133.881 360 132.5C360 131.119 358.881 130 357.5 130C356.119 130 355 131.119 355 132.5C355 133.881 356.119 135 357.5 135Z" fill="#212121"/>
<path d="M405.5 135C406.881 135 408 133.881 408 132.5C408 131.119 406.881 130 405.5 130C404.119 130 403 131.119 403 132.5C403 133.881 404.119 135 405.5 135Z" fill="#212121"/>
<path d="M285.5 91C286.881 91 288 89.8807 288 88.5C288 87.1193 286.881 86 285.5 86C284.119 86 283 87.1193 283 88.5C283 89.8807 284.119 91 285.5 91Z" fill="#212121"/>
<path d="M333.5 91C334.881 91 336 89.8807 336 88.5C336 87.1193 334.881 86 333.5 86C332.119 86 331 87.1193 331 88.5C331 89.8807 332.119 91 333.5 91Z" fill="#212121"/>
<path d="M381.5 91C382.881 91 384 89.8807 384 88.5C384 87.1193 382.881 86 381.5 86C380.119 86 379 87.1193 379 88.5C379 89.8807 380.119 91 381.5 91Z" fill="#212121"/>
<path d="M309.5 91C310.881 91 312 89.8807 312 88.5C312 87.1193 310.881 86 309.5 86C308.119 86 307 87.1193 307 88.5C307 89.8807 308.119 91 309.5 91Z" fill="#212121"/>
<path d="M357.5 91C358.881 91 360 89.8807 360 88.5C360 87.1193 358.881 86 357.5 86C356.119 86 355 87.1193 355 88.5C355 89.8807 356.119 91 357.5 91Z" fill="#212121"/>
<path d="M405.5 91C406.881 91 408 89.8807 408 88.5C408 87.1193 406.881 86 405.5 86C404.119 86 403 87.1193 403 88.5C403 89.8807 404.119 91 405.5 91Z" fill="#212121"/>
<path d="M285.5 157C286.881 157 288 155.881 288 154.5C288 153.119 286.881 152 285.5 152C284.119 152 283 153.119 283 154.5C283 155.881 284.119 157 285.5 157Z" fill="#212121"/>
<path d="M333.5 157C334.881 157 336 155.881 336 154.5C336 153.119 334.881 152 333.5 152C332.119 152 331 153.119 331 154.5C331 155.881 332.119 157 333.5 157Z" fill="#212121"/>
<path d="M381.5 157C382.881 157 384 155.881 384 154.5C384 153.119 382.881 152 381.5 152C380.119 152 379 153.119 379 154.5C379 155.881 380.119 157 381.5 157Z" fill="#212121"/>
<path d="M309.5 157C310.881 157 312 155.881 312 154.5C312 153.119 310.881 152 309.5 152C308.119 152 307 153.119 307 154.5C307 155.881 308.119 157 309.5 157Z" fill="#212121"/>
<path d="M357.5 157C358.881 157 360 155.881 360 154.5C360 153.119 358.881 152 357.5 152C356.119 152 355 153.119 355 154.5C355 155.881 356.119 157 357.5 157Z" fill="#212121"/>
<path d="M405.5 157C406.881 157 408 155.881 408 154.5C408 153.119 406.881 152 405.5 152C404.119 152 403 153.119 403 154.5C403 155.881 404.119 157 405.5 157Z" fill="#212121"/>
<path d="M285.5 113C286.881 113 288 111.881 288 110.5C288 109.119 286.881 108 285.5 108C284.119 108 283 109.119 283 110.5C283 111.881 284.119 113 285.5 113Z" fill="#212121"/>
<path d="M333.5 113C334.881 113 336 111.881 336 110.5C336 109.119 334.881 108 333.5 108C332.119 108 331 109.119 331 110.5C331 111.881 332.119 113 333.5 113Z" fill="#212121"/>
<path d="M381.5 113C382.881 113 384 111.881 384 110.5C384 109.119 382.881 108 381.5 108C380.119 108 379 109.119 379 110.5C379 111.881 380.119 113 381.5 113Z" fill="#212121"/>
<path d="M309.5 113C310.881 113 312 111.881 312 110.5C312 109.119 310.881 108 309.5 108C308.119 108 307 109.119 307 110.5C307 111.881 308.119 113 309.5 113Z" fill="#212121"/>
<path d="M357.5 113C358.881 113 360 111.881 360 110.5C360 109.119 358.881 108 357.5 108C356.119 108 355 109.119 355 110.5C355 111.881 356.119 113 357.5 113Z" fill="#212121"/>
<path d="M405.5 113C406.881 113 408 111.881 408 110.5C408 109.119 406.881 108 405.5 108C404.119 108 403 109.119 403 110.5C403 111.881 404.119 113 405.5 113Z" fill="#212121"/>
<path d="M285.5 179C286.881 179 288 177.881 288 176.5C288 175.119 286.881 174 285.5 174C284.119 174 283 175.119 283 176.5C283 177.881 284.119 179 285.5 179Z" fill="#212121"/>
<path d="M333.5 179C334.881 179 336 177.881 336 176.5C336 175.119 334.881 174 333.5 174C332.119 174 331 175.119 331 176.5C331 177.881 332.119 179 333.5 179Z" fill="#212121"/>
<path d="M381.5 179C382.881 179 384 177.881 384 176.5C384 175.119 382.881 174 381.5 174C380.119 174 379 175.119 379 176.5C379 177.881 380.119 179 381.5 179Z" fill="#212121"/>
<path d="M309.5 179C310.881 179 312 177.881 312 176.5C312 175.119 310.881 174 309.5 174C308.119 174 307 175.119 307 176.5C307 177.881 308.119 179 309.5 179Z" fill="#212121"/>
<path d="M357.5 179C358.881 179 360 177.881 360 176.5C360 175.119 358.881 174 357.5 174C356.119 174 355 175.119 355 176.5C355 177.881 356.119 179 357.5 179Z" fill="#212121"/>
<path d="M405.5 179C406.881 179 408 177.881 408 176.5C408 175.119 406.881 174 405.5 174C404.119 174 403 175.119 403 176.5C403 177.881 404.119 179 405.5 179Z" fill="#212121"/>
<path opacity="0.3" d="M108.721 136.391L136.389 108.721C131.492 111.522 126.929 114.871 122.789 118.703L118.702 122.792C114.869 126.932 111.521 131.494 108.721 136.391V136.391Z" fill="#CFCFCF"/>
<path opacity="0.3" d="M100.465 158.378L158.378 100.465C156.778 100.788 155.198 101.162 153.639 101.588L101.588 153.639C101.163 155.2 100.789 156.78 100.465 158.378Z" fill="#CFCFCF"/>
<path opacity="0.3" d="M99 173.103C99 173.26 99.005 173.415 99.005 173.573L173.571 99.007C173.416 99.007 173.26 99 173.103 99C172.025 99 170.954 99.028 169.888 99.074L99.074 169.888C99.032 170.954 99 172.025 99 173.103Z" fill="#CFCFCF"/>
<path opacity="0.3" d="M100.147 186.163L186.161 100.149C185.125 99.965 184.079 99.8061 183.028 99.6641L99.6621 183.031C99.8021 184.081 99.9611 185.127 100.147 186.163Z" fill="#CFCFCF"/>
<path opacity="0.3" d="M102.964 197.079L197.072 102.968C196.166 102.657 195.252 102.368 194.33 102.092L102.088 194.335C102.366 195.257 102.655 196.171 102.964 197.079Z" fill="#CFCFCF"/>
<path opacity="0.3" d="M107.052 206.725L206.726 107.051C205.926 106.642 205.11 106.251 204.291 105.87L105.869 204.291C106.25 205.111 106.644 205.922 107.052 206.725Z" fill="#CFCFCF"/>
<path opacity="0.3" d="M112.198 215.314L215.314 112.196C214.602 111.696 213.882 111.213 213.15 110.744L110.75 213.153C111.216 213.88 111.702 214.6 112.198 215.314Z" fill="#CFCFCF"/>
<path opacity="0.3" d="M118.28 222.961L222.96 118.281C222.328 117.708 221.683 117.146 221.032 116.593L116.596 221.033C117.145 221.684 117.705 222.33 118.28 222.961Z" fill="#CFCFCF"/>
<path opacity="0.3" d="M125.276 229.701L229.699 125.277C229.147 124.624 228.586 123.98 228.015 123.345L123.344 228.014C123.977 228.589 124.622 229.148 125.276 229.701Z" fill="#CFCFCF"/>
<path opacity="0.3" d="M133.171 235.538L235.536 133.172C235.066 132.44 234.582 131.72 234.087 131.005L131.004 234.09C131.718 234.583 132.439 235.069 133.171 235.538Z" fill="#CFCFCF"/>
<path opacity="0.3" d="M142.047 240.398L240.399 142.045C240.02 141.225 239.627 140.412 239.219 139.607L139.609 239.217C140.413 239.626 141.226 240.02 142.047 240.398Z" fill="#CFCFCF"/>
<path opacity="0.3" d="M152.02 244.158L244.157 152.019C243.885 151.097 243.597 150.177 243.29 149.27L149.27 243.289C150.177 243.596 151.095 243.884 152.02 244.158Z" fill="#CFCFCF"/>
<path opacity="0.3" d="M163.345 246.566L246.565 163.344C246.428 162.291 246.268 161.246 246.085 160.207L160.213 246.084C161.248 246.267 162.292 246.427 163.345 246.566Z" fill="#CFCFCF"/>
<path opacity="0.3" d="M173.102 247.206C174.247 247.206 175.385 247.176 176.516 247.124L247.123 176.519C247.175 175.386 247.205 174.248 247.205 173.103C247.205 173.009 247.205 172.917 247.205 172.824L172.828 247.203C172.915 247.203 173.008 247.206 173.102 247.206Z" fill="#CFCFCF"/>
<path opacity="0.3" d="M192.828 244.545L244.545 192.83C244.978 191.261 245.364 189.673 245.693 188.064L188.064 245.693C189.674 245.367 191.262 244.985 192.828 244.545Z" fill="#CFCFCF"/>
<path opacity="0.3" d="M237.217 210.272L210.271 237.223C221.44 230.729 230.726 221.441 237.217 210.272V210.272Z" fill="#CFCFCF"/>
<defs>
<linearGradient id="paint0_linear" x1="173.5" y1="0" x2="173.5" y2="347" gradientUnits="userSpaceOnUse">
<stop stop-color="#D82E76"/>
<stop offset="1" stop-color="#FF032D"/>
</linearGradient>
</defs>
</svg>
