<svg width="512" height="347" viewBox="0 0 512 347" fill="none" xmlns="http://www.w3.org/2000/svg">
<path opacity="0.2" d="M338.5 347C326.756 347.003 315.041 345.822 303.534 343.475C281.341 338.93 260.26 330.059 241.495 317.369C213.6 298.538 191.765 272.022 178.635 241.034C174.198 230.538 170.812 219.629 168.525 208.466C163.825 185.392 163.825 161.608 168.525 138.534C173.07 116.341 181.941 95.2603 194.631 76.4949C213.461 48.6003 239.977 26.7652 270.966 13.6349C281.462 9.19825 292.371 5.81173 303.534 3.52486C326.608 -1.17495 350.392 -1.17495 373.466 3.52486C395.659 8.07002 416.739 16.9408 435.505 29.6309C463.399 48.4614 485.235 74.9773 498.365 105.966C502.801 116.462 506.188 127.371 508.475 138.534C513.175 161.608 513.175 185.392 508.475 208.466C503.93 230.659 495.059 251.739 482.369 270.505C463.538 298.399 437.022 320.235 406.034 333.365C395.538 337.801 384.629 341.188 373.466 343.475C361.959 345.822 350.244 347.003 338.5 347V347ZM338.762 28.9999C258.94 28.9999 194 93.9398 194 173.762C194 253.584 258.94 318.524 338.762 318.524C418.584 318.524 483.523 253.584 483.523 173.763C483.523 93.9418 418.584 28.9999 338.762 28.9999Z" fill="url(#paint0_linear)"/>
<path d="M145.5 134C146.881 134 148 132.881 148 131.5C148 130.119 146.881 129 145.5 129C144.119 129 143 130.119 143 131.5C143 132.881 144.119 134 145.5 134Z" fill="#212121"/>
<path d="M193.5 134C194.881 134 196 132.881 196 131.5C196 130.119 194.881 129 193.5 129C192.119 129 191 130.119 191 131.5C191 132.881 192.119 134 193.5 134Z" fill="#212121"/>
<path d="M241.5 134C242.881 134 244 132.881 244 131.5C244 130.119 242.881 129 241.5 129C240.119 129 239 130.119 239 131.5C239 132.881 240.119 134 241.5 134Z" fill="#212121"/>
<path d="M169.5 134C170.881 134 172 132.881 172 131.5C172 130.119 170.881 129 169.5 129C168.119 129 167 130.119 167 131.5C167 132.881 168.119 134 169.5 134Z" fill="#212121"/>
<path d="M217.5 134C218.881 134 220 132.881 220 131.5C220 130.119 218.881 129 217.5 129C216.119 129 215 130.119 215 131.5C215 132.881 216.119 134 217.5 134Z" fill="#212121"/>
<path d="M265.5 134C266.881 134 268 132.881 268 131.5C268 130.119 266.881 129 265.5 129C264.119 129 263 130.119 263 131.5C263 132.881 264.119 134 265.5 134Z" fill="#212121"/>
<path d="M145.5 200C146.881 200 148 198.881 148 197.5C148 196.119 146.881 195 145.5 195C144.119 195 143 196.119 143 197.5C143 198.881 144.119 200 145.5 200Z" fill="#212121"/>
<path d="M193.5 200C194.881 200 196 198.881 196 197.5C196 196.119 194.881 195 193.5 195C192.119 195 191 196.119 191 197.5C191 198.881 192.119 200 193.5 200Z" fill="#212121"/>
<path d="M241.5 200C242.881 200 244 198.881 244 197.5C244 196.119 242.881 195 241.5 195C240.119 195 239 196.119 239 197.5C239 198.881 240.119 200 241.5 200Z" fill="#212121"/>
<path d="M169.5 200C170.881 200 172 198.881 172 197.5C172 196.119 170.881 195 169.5 195C168.119 195 167 196.119 167 197.5C167 198.881 168.119 200 169.5 200Z" fill="#212121"/>
<path d="M217.5 200C218.881 200 220 198.881 220 197.5C220 196.119 218.881 195 217.5 195C216.119 195 215 196.119 215 197.5C215 198.881 216.119 200 217.5 200Z" fill="#212121"/>
<path d="M265.5 200C266.881 200 268 198.881 268 197.5C268 196.119 266.881 195 265.5 195C264.119 195 263 196.119 263 197.5C263 198.881 264.119 200 265.5 200Z" fill="#212121"/>
<path d="M145.5 156C146.881 156 148 154.881 148 153.5C148 152.119 146.881 151 145.5 151C144.119 151 143 152.119 143 153.5C143 154.881 144.119 156 145.5 156Z" fill="#212121"/>
<path d="M193.5 156C194.881 156 196 154.881 196 153.5C196 152.119 194.881 151 193.5 151C192.119 151 191 152.119 191 153.5C191 154.881 192.119 156 193.5 156Z" fill="#212121"/>
<path d="M241.5 156C242.881 156 244 154.881 244 153.5C244 152.119 242.881 151 241.5 151C240.119 151 239 152.119 239 153.5C239 154.881 240.119 156 241.5 156Z" fill="#212121"/>
<path d="M169.5 156C170.881 156 172 154.881 172 153.5C172 152.119 170.881 151 169.5 151C168.119 151 167 152.119 167 153.5C167 154.881 168.119 156 169.5 156Z" fill="#212121"/>
<path d="M217.5 156C218.881 156 220 154.881 220 153.5C220 152.119 218.881 151 217.5 151C216.119 151 215 152.119 215 153.5C215 154.881 216.119 156 217.5 156Z" fill="#212121"/>
<path d="M265.5 156C266.881 156 268 154.881 268 153.5C268 152.119 266.881 151 265.5 151C264.119 151 263 152.119 263 153.5C263 154.881 264.119 156 265.5 156Z" fill="#212121"/>
<path d="M145.5 222C146.881 222 148 220.881 148 219.5C148 218.119 146.881 217 145.5 217C144.119 217 143 218.119 143 219.5C143 220.881 144.119 222 145.5 222Z" fill="#212121"/>
<path d="M193.5 222C194.881 222 196 220.881 196 219.5C196 218.119 194.881 217 193.5 217C192.119 217 191 218.119 191 219.5C191 220.881 192.119 222 193.5 222Z" fill="#212121"/>
<path d="M241.5 222C242.881 222 244 220.881 244 219.5C244 218.119 242.881 217 241.5 217C240.119 217 239 218.119 239 219.5C239 220.881 240.119 222 241.5 222Z" fill="#212121"/>
<path d="M169.5 222C170.881 222 172 220.881 172 219.5C172 218.119 170.881 217 169.5 217C168.119 217 167 218.119 167 219.5C167 220.881 168.119 222 169.5 222Z" fill="#212121"/>
<path d="M217.5 222C218.881 222 220 220.881 220 219.5C220 218.119 218.881 217 217.5 217C216.119 217 215 218.119 215 219.5C215 220.881 216.119 222 217.5 222Z" fill="#212121"/>
<path d="M265.5 222C266.881 222 268 220.881 268 219.5C268 218.119 266.881 217 265.5 217C264.119 217 263 218.119 263 219.5C263 220.881 264.119 222 265.5 222Z" fill="#212121"/>
<path d="M145.5 178C146.881 178 148 176.881 148 175.5C148 174.119 146.881 173 145.5 173C144.119 173 143 174.119 143 175.5C143 176.881 144.119 178 145.5 178Z" fill="#212121"/>
<path d="M193.5 178C194.881 178 196 176.881 196 175.5C196 174.119 194.881 173 193.5 173C192.119 173 191 174.119 191 175.5C191 176.881 192.119 178 193.5 178Z" fill="#212121"/>
<path d="M241.5 178C242.881 178 244 176.881 244 175.5C244 174.119 242.881 173 241.5 173C240.119 173 239 174.119 239 175.5C239 176.881 240.119 178 241.5 178Z" fill="#212121"/>
<path d="M169.5 178C170.881 178 172 176.881 172 175.5C172 174.119 170.881 173 169.5 173C168.119 173 167 174.119 167 175.5C167 176.881 168.119 178 169.5 178Z" fill="#212121"/>
<path d="M217.5 178C218.881 178 220 176.881 220 175.5C220 174.119 218.881 173 217.5 173C216.119 173 215 174.119 215 175.5C215 176.881 216.119 178 217.5 178Z" fill="#212121"/>
<path d="M265.5 178C266.881 178 268 176.881 268 175.5C268 174.119 266.881 173 265.5 173C264.119 173 263 174.119 263 175.5C263 176.881 264.119 178 265.5 178Z" fill="#212121"/>
<path d="M145.5 244C146.881 244 148 242.881 148 241.5C148 240.119 146.881 239 145.5 239C144.119 239 143 240.119 143 241.5C143 242.881 144.119 244 145.5 244Z" fill="#212121"/>
<path d="M193.5 244C194.881 244 196 242.881 196 241.5C196 240.119 194.881 239 193.5 239C192.119 239 191 240.119 191 241.5C191 242.881 192.119 244 193.5 244Z" fill="#212121"/>
<path d="M241.5 244C242.881 244 244 242.881 244 241.5C244 240.119 242.881 239 241.5 239C240.119 239 239 240.119 239 241.5C239 242.881 240.119 244 241.5 244Z" fill="#212121"/>
<path d="M169.5 244C170.881 244 172 242.881 172 241.5C172 240.119 170.881 239 169.5 239C168.119 239 167 240.119 167 241.5C167 242.881 168.119 244 169.5 244Z" fill="#212121"/>
<path d="M217.5 244C218.881 244 220 242.881 220 241.5C220 240.119 218.881 239 217.5 239C216.119 239 215 240.119 215 241.5C215 242.881 216.119 244 217.5 244Z" fill="#212121"/>
<path d="M265.5 244C266.881 244 268 242.881 268 241.5C268 240.119 266.881 239 265.5 239C264.119 239 263 240.119 263 241.5C263 242.881 264.119 244 265.5 244Z" fill="#212121"/>
<path d="M2.5 134C3.88071 134 5 132.881 5 131.5C5 130.119 3.88071 129 2.5 129C1.11929 129 0 130.119 0 131.5C0 132.881 1.11929 134 2.5 134Z" fill="#212121"/>
<path d="M50.5 134C51.8807 134 53 132.881 53 131.5C53 130.119 51.8807 129 50.5 129C49.1193 129 48 130.119 48 131.5C48 132.881 49.1193 134 50.5 134Z" fill="#212121"/>
<path d="M98.5 134C99.8807 134 101 132.881 101 131.5C101 130.119 99.8807 129 98.5 129C97.1193 129 96 130.119 96 131.5C96 132.881 97.1193 134 98.5 134Z" fill="#212121"/>
<path d="M26.5 134C27.8807 134 29 132.881 29 131.5C29 130.119 27.8807 129 26.5 129C25.1193 129 24 130.119 24 131.5C24 132.881 25.1193 134 26.5 134Z" fill="#212121"/>
<path d="M74.5 134C75.8807 134 77 132.881 77 131.5C77 130.119 75.8807 129 74.5 129C73.1193 129 72 130.119 72 131.5C72 132.881 73.1193 134 74.5 134Z" fill="#212121"/>
<path d="M122.5 134C123.881 134 125 132.881 125 131.5C125 130.119 123.881 129 122.5 129C121.119 129 120 130.119 120 131.5C120 132.881 121.119 134 122.5 134Z" fill="#212121"/>
<path d="M2.5 200C3.88071 200 5 198.881 5 197.5C5 196.119 3.88071 195 2.5 195C1.11929 195 0 196.119 0 197.5C0 198.881 1.11929 200 2.5 200Z" fill="#212121"/>
<path d="M50.5 200C51.8807 200 53 198.881 53 197.5C53 196.119 51.8807 195 50.5 195C49.1193 195 48 196.119 48 197.5C48 198.881 49.1193 200 50.5 200Z" fill="#212121"/>
<path d="M98.5 200C99.8807 200 101 198.881 101 197.5C101 196.119 99.8807 195 98.5 195C97.1193 195 96 196.119 96 197.5C96 198.881 97.1193 200 98.5 200Z" fill="#212121"/>
<path d="M26.5 200C27.8807 200 29 198.881 29 197.5C29 196.119 27.8807 195 26.5 195C25.1193 195 24 196.119 24 197.5C24 198.881 25.1193 200 26.5 200Z" fill="#212121"/>
<path d="M74.5 200C75.8807 200 77 198.881 77 197.5C77 196.119 75.8807 195 74.5 195C73.1193 195 72 196.119 72 197.5C72 198.881 73.1193 200 74.5 200Z" fill="#212121"/>
<path d="M122.5 200C123.881 200 125 198.881 125 197.5C125 196.119 123.881 195 122.5 195C121.119 195 120 196.119 120 197.5C120 198.881 121.119 200 122.5 200Z" fill="#212121"/>
<path d="M2.5 156C3.88071 156 5 154.881 5 153.5C5 152.119 3.88071 151 2.5 151C1.11929 151 0 152.119 0 153.5C0 154.881 1.11929 156 2.5 156Z" fill="#212121"/>
<path d="M50.5 156C51.8807 156 53 154.881 53 153.5C53 152.119 51.8807 151 50.5 151C49.1193 151 48 152.119 48 153.5C48 154.881 49.1193 156 50.5 156Z" fill="#212121"/>
<path d="M98.5 156C99.8807 156 101 154.881 101 153.5C101 152.119 99.8807 151 98.5 151C97.1193 151 96 152.119 96 153.5C96 154.881 97.1193 156 98.5 156Z" fill="#212121"/>
<path d="M26.5 156C27.8807 156 29 154.881 29 153.5C29 152.119 27.8807 151 26.5 151C25.1193 151 24 152.119 24 153.5C24 154.881 25.1193 156 26.5 156Z" fill="#212121"/>
<path d="M74.5 156C75.8807 156 77 154.881 77 153.5C77 152.119 75.8807 151 74.5 151C73.1193 151 72 152.119 72 153.5C72 154.881 73.1193 156 74.5 156Z" fill="#212121"/>
<path d="M122.5 156C123.881 156 125 154.881 125 153.5C125 152.119 123.881 151 122.5 151C121.119 151 120 152.119 120 153.5C120 154.881 121.119 156 122.5 156Z" fill="#212121"/>
<path d="M2.5 222C3.88071 222 5 220.881 5 219.5C5 218.119 3.88071 217 2.5 217C1.11929 217 0 218.119 0 219.5C0 220.881 1.11929 222 2.5 222Z" fill="#212121"/>
<path d="M50.5 222C51.8807 222 53 220.881 53 219.5C53 218.119 51.8807 217 50.5 217C49.1193 217 48 218.119 48 219.5C48 220.881 49.1193 222 50.5 222Z" fill="#212121"/>
<path d="M98.5 222C99.8807 222 101 220.881 101 219.5C101 218.119 99.8807 217 98.5 217C97.1193 217 96 218.119 96 219.5C96 220.881 97.1193 222 98.5 222Z" fill="#212121"/>
<path d="M26.5 222C27.8807 222 29 220.881 29 219.5C29 218.119 27.8807 217 26.5 217C25.1193 217 24 218.119 24 219.5C24 220.881 25.1193 222 26.5 222Z" fill="#212121"/>
<path d="M74.5 222C75.8807 222 77 220.881 77 219.5C77 218.119 75.8807 217 74.5 217C73.1193 217 72 218.119 72 219.5C72 220.881 73.1193 222 74.5 222Z" fill="#212121"/>
<path d="M122.5 222C123.881 222 125 220.881 125 219.5C125 218.119 123.881 217 122.5 217C121.119 217 120 218.119 120 219.5C120 220.881 121.119 222 122.5 222Z" fill="#212121"/>
<path d="M2.5 178C3.88071 178 5 176.881 5 175.5C5 174.119 3.88071 173 2.5 173C1.11929 173 0 174.119 0 175.5C0 176.881 1.11929 178 2.5 178Z" fill="#212121"/>
<path d="M50.5 178C51.8807 178 53 176.881 53 175.5C53 174.119 51.8807 173 50.5 173C49.1193 173 48 174.119 48 175.5C48 176.881 49.1193 178 50.5 178Z" fill="#212121"/>
<path d="M98.5 178C99.8807 178 101 176.881 101 175.5C101 174.119 99.8807 173 98.5 173C97.1193 173 96 174.119 96 175.5C96 176.881 97.1193 178 98.5 178Z" fill="#212121"/>
<path d="M26.5 178C27.8807 178 29 176.881 29 175.5C29 174.119 27.8807 173 26.5 173C25.1193 173 24 174.119 24 175.5C24 176.881 25.1193 178 26.5 178Z" fill="#212121"/>
<path d="M74.5 178C75.8807 178 77 176.881 77 175.5C77 174.119 75.8807 173 74.5 173C73.1193 173 72 174.119 72 175.5C72 176.881 73.1193 178 74.5 178Z" fill="#212121"/>
<path d="M122.5 178C123.881 178 125 176.881 125 175.5C125 174.119 123.881 173 122.5 173C121.119 173 120 174.119 120 175.5C120 176.881 121.119 178 122.5 178Z" fill="#212121"/>
<path d="M2.5 244C3.88071 244 5 242.881 5 241.5C5 240.119 3.88071 239 2.5 239C1.11929 239 0 240.119 0 241.5C0 242.881 1.11929 244 2.5 244Z" fill="#212121"/>
<path d="M50.5 244C51.8807 244 53 242.881 53 241.5C53 240.119 51.8807 239 50.5 239C49.1193 239 48 240.119 48 241.5C48 242.881 49.1193 244 50.5 244Z" fill="#212121"/>
<path d="M98.5 244C99.8807 244 101 242.881 101 241.5C101 240.119 99.8807 239 98.5 239C97.1193 239 96 240.119 96 241.5C96 242.881 97.1193 244 98.5 244Z" fill="#212121"/>
<path d="M26.5 244C27.8807 244 29 242.881 29 241.5C29 240.119 27.8807 239 26.5 239C25.1193 239 24 240.119 24 241.5C24 242.881 25.1193 244 26.5 244Z" fill="#212121"/>
<path d="M74.5 244C75.8807 244 77 242.881 77 241.5C77 240.119 75.8807 239 74.5 239C73.1193 239 72 240.119 72 241.5C72 242.881 73.1193 244 74.5 244Z" fill="#212121"/>
<path d="M122.5 244C123.881 244 125 242.881 125 241.5C125 240.119 123.881 239 122.5 239C121.119 239 120 240.119 120 241.5C120 242.881 121.119 244 122.5 244Z" fill="#212121"/>
<defs>
<linearGradient id="paint0_linear" x1="338.5" y1="0" x2="338.5" y2="347" gradientUnits="userSpaceOnUse">
<stop stop-color="#D82E76"/>
<stop offset="1" stop-color="#FF032D"/>
</linearGradient>
</defs>
</svg>
